<svg xmlns="http://www.w3.org/2000/svg" width="35" height="39" viewBox="0 0 35 39">
    <g fill="none">
        <path d="M11.935 15.75L11.935 22.765 18.048 26.193 18.048 19.327z"/>
        <path fill="#FFF" d="M11.895 15.723L28.604 6.286 34.71 9.629 18.091 19.295z"/>
        <path fill="#FFF" d="M17.302 0.159L34.822 9.563 27.875 13.467 11.296 3.447z"/>
        <path stroke="#979797" d="M0.184 9.735L6.667 13.124"/>
        <path fill="#FFF" d="M6.655 13.105L23.268 3.475 17.274.224.294 9.865zM.255 9.896l6.355 3.278-.315 12.49 11.299 6.22v6.917L6.125 32.42l-.002.102-5.868-3.265V9.896zM34.54 16.732v12.403l-3.259 1.837-13.649 7.84V31.81l10.749-6.113v-5.372l6.158-3.593z"/>
    </g>
</svg>
