<?xml version="1.0" encoding="utf-8"?>
<!-- Generator: Adobe Illustrator 24.1.0, SVG Export Plug-In . SVG Version: 6.00 Build 0)  -->
<svg version="1.1" id="Layer_1" xmlns="http://www.w3.org/2000/svg" xmlns:xlink="http://www.w3.org/1999/xlink" x="0px" y="0px"
	 viewBox="0 0 146.1 50.1" style="enable-background:new 0 0 146.1 50.1;" xml:space="preserve">
<style type="text/css">
	.st0{fill:#FFFFFF;}
</style>
<g>
	<g>
		<path class="st0" d="M58.9,21.6h-9c0.3,1.4,1.5,2.3,3,2.3c1.1,0,2.2-0.5,3-1.3l2.2,2.2c-1.5,1.6-3.5,2.4-5.6,2.3
			c-4.2,0-6.8-2.6-6.8-6.5c-0.2-3.5,2.5-6.5,6-6.7c0.3,0,0.5,0,0.8,0C56.9,13.9,59.2,16.9,58.9,21.6z M54.8,19.4
			c0.1-1.3-0.9-2.4-2.2-2.5c-0.1,0-0.1,0-0.2,0C51.1,17,50,18,49.9,19.4H54.8z"/>
		<path class="st0" d="M75.9,20.6c0,3.9-2.3,6.5-5.9,6.5c-1.5,0.1-3-0.6-3.9-1.8V27h-4.2V9.2h4.3v6.5c0.9-1.2,2.3-1.8,3.7-1.8
			C73.5,13.9,75.9,16.5,75.9,20.6z M71.7,20.5c0-1.9-1.1-3.2-2.8-3.2s-2.8,1.3-2.8,3.2s1.1,3.2,2.8,3.2S71.7,22.4,71.7,20.5z"/>
		<path class="st0" d="M83.1,9.2V27h-4.2V9.2H83.1z"/>
		<path class="st0" d="M100.2,20.5c0,4-2.8,6.6-7.1,6.6S86,24.5,86,20.5s2.8-6.6,7.1-6.6S100.2,16.5,100.2,20.5z M90.3,20.5
			c0,1.9,1.1,3.2,2.8,3.2s2.8-1.3,2.8-3.2s-1.1-3.2-2.8-3.2S90.3,18.6,90.3,20.5z"/>
		<path class="st0" d="M108.7,17.4c-1.5,0-2.6,1.3-2.6,3.1s1.1,3.1,2.6,3.1c1.1,0.1,2.1-0.5,2.5-1.5l3.1,1.8c-1,2-3.1,3.1-5.9,3.1
			c-4,0-6.7-2.6-6.7-6.5c-0.2-3.5,2.4-6.5,5.9-6.7c0.3,0,0.5,0,0.8,0c2.3-0.1,4.6,1,5.8,3l-3.1,1.8
			C110.7,17.9,109.7,17.4,108.7,17.4z"/>
		<path class="st0" d="M122.6,22.1l-1.3,1.4V27h-4.3V9.2h4.3v9.2l4.1-4.4h4.8l-4.7,5l4.8,7.9h-5L122.6,22.1z"/>
		<path class="st0" d="M136.9,16.8c-0.7,0-1.2,0.3-1.2,0.8c0,1.7,6.8,0.9,6.8,5.4c0,2.7-2.3,4.2-5.5,4.2c-2.1,0-4.1-0.6-5.8-1.9
			l1.3-2.8c1.3,1,2.9,1.5,4.6,1.6c0.8,0,1.4-0.3,1.4-0.8c0-1.8-6.7-0.9-6.7-5.4c0-2.7,2.3-4.2,5.3-4.2c1.9,0,3.8,0.5,5.4,1.5
			l-1.4,2.8C139.7,17.4,138.3,16.9,136.9,16.8z"/>
	</g>
	<polygon class="st0" points="41.8,22 41.8,35.8 23.1,46.5 3.6,35.9 3.6,14.4 22.6,3.6 42.1,14 23.5,24.8 16.6,20.9 27.7,14.6 
		22.2,11.3 10.7,18 10.3,31.9 23.1,38.8 35,31.9 35,26 	"/>
	<polygon class="st0" points="41.8,22 41.8,35.7 23.1,46.5 3.6,35.9 3.6,14.4 22.6,3.6 42.1,14 23.5,24.8 16.6,20.9 27.7,14.6 
		22.2,11.3 10.7,18 10.3,31.9 23.1,38.8 35,31.9 35,26 	"/>
	<g>
		<path class="st0" d="M47.5,33.6c-0.4,0-0.8,0.1-0.8,0.5c0,1,2.8,0.5,2.8,2.4c0,1.1-1,1.6-2,1.6c-0.8,0-1.6-0.3-2.1-0.7l0.4-0.8
			c0.5,0.4,1.2,0.7,1.8,0.7c0.5,0,0.9-0.2,0.9-0.6c0-1.1-2.8-0.5-2.8-2.4c0-1.1,0.9-1.5,2-1.5c0.7,0,1.4,0.2,1.9,0.5l-0.4,0.8
			C48.6,33.8,48,33.6,47.5,33.6z"/>
		<path class="st0" d="M63.6,35.4c0,1.6-1.1,2.7-2.8,2.7c-1.6,0-2.8-1.1-2.8-2.7c0-1.6,1.1-2.7,2.8-2.7
			C62.5,32.7,63.6,33.8,63.6,35.4z M59.2,35.4c0,1,0.7,1.7,1.6,1.7c0.9,0,1.6-0.7,1.6-1.7c0-1-0.7-1.7-1.6-1.7
			C59.9,33.7,59.2,34.4,59.2,35.4z"/>
		<path class="st0" d="M73.9,32.3V33h1.4v0.9h-1.4v4.3h-1.1v-4.3h-0.7V33h0.7v-0.5c0-1.2,0.9-1.8,1.8-1.8c0.4,0,0.9,0.1,1.2,0.4
			l-0.4,0.9c-0.2-0.2-0.5-0.2-0.7-0.2C74.2,31.6,73.9,31.8,73.9,32.3z"/>
		<path class="st0" d="M86.9,37.8c-0.4,0.2-0.9,0.4-1.3,0.4c-0.8,0-1.5-0.5-1.5-1.5v-2.8h-0.7V33h0.7v-1.5h1.1V33h1.6v0.9h-1.6v2.5
			c0,0.5,0.2,0.7,0.6,0.7c0.2,0,0.5-0.1,0.8-0.2L86.9,37.8z"/>
		<path class="st0" d="M96.1,32.8l1.4,4.2l1.3-4.2h1.2l1.3,4.2l1.4-4.2h1.2l-1.9,5.3h-1.2l-1.3-3.9L98,38.1h-1.2l-2-5.3H96.1z"/>
		<path class="st0" d="M115.5,38.1v-0.6c-0.4,0.5-1,0.7-1.8,0.7c-1.1,0-1.9-0.7-1.9-1.6c0-1,0.7-1.6,2-1.6h1.6v-0.2
			c0-0.7-0.4-1.1-1.3-1.1c-0.5,0-1,0.2-1.6,0.5l-0.5-0.8c0.7-0.4,1.3-0.7,2.3-0.7c1.4,0,2.1,0.7,2.1,1.9l0,3.5H115.5z M115.5,36.2
			v-0.5H114c-0.8,0-1.1,0.2-1.1,0.7c0,0.5,0.4,0.8,1,0.8C114.8,37.2,115.4,36.8,115.5,36.2z"/>
		<path class="st0" d="M129,32.7v1.1c-1.1-0.1-1.7,0.6-1.8,1.5v2.8H126v-5.3h1.1v1.1C127.5,33.1,128.1,32.7,129,32.7z"/>
		<path class="st0" d="M142.4,35.9h-4c0.2,0.8,0.8,1.3,1.6,1.3c0.6,0,1.1-0.2,1.5-0.6l0.6,0.6c-0.5,0.6-1.3,0.9-2.2,0.9
			c-1.6,0-2.7-1.1-2.7-2.7c0-1.6,1.1-2.7,2.7-2.7C141.8,32.7,142.5,34,142.4,35.9z M141.4,35c0-0.9-0.6-1.4-1.5-1.4
			c-0.8,0-1.4,0.5-1.6,1.4H141.4z"/>
	</g>
</g>
</svg>
